Coordinates
version=1
nRows=14
nColumns=46
inDegrees=yes

Units are S.I. units (second, meters, Newtons, ...)
Angles are in degrees.

endheader
time	pelvis_tilt	pelvis_list	pelvis_rotation	pelvis_tx	pelvis_ty	pelvis_tz	bb_angle	bb_tx	bb_ty	bb_tz	hip_flexion_r	hip_adduction_r	hip_rotation_r	knee_angle_r	knee_angle_r_beta	ankle_angle_r	subtalar_angle_r	mtp_angle_r	crank_angle_r	hip_flexion_l	hip_adduction_l	hip_rotation_l	knee_angle_l	knee_angle_l_beta	ankle_angle_l	subtalar_angle_l	mtp_angle_l	crank_angle_l	lumbar_extension	lumbar_bending	lumbar_rotation	arm_flex_r	arm_add_r	arm_rot_r	elbow_flex_r	pro_sup_r	wrist_flex_r	wrist_dev_r	arm_flex_l	arm_add_l	arm_rot_l	elbow_flex_l	pro_sup_l	wrist_flex_l	wrist_dev_l
      0.00000000	    -27.19915380	     -0.74711222	     -3.14596835	      0.14677399	      1.03669174	     -0.21892996	      0.00000000	      0.50000000	      0.00000000	      0.25000000	     88.70792273	     -1.38229987	      2.24190295	     76.02958146	      1.32696653	     -3.73312511	     -6.00307730	      0.00000000	      0.00000000	     64.66761411	     -5.49219995	      3.62670700	     81.01598500	      1.41399569	     -8.54673764	    -13.65308675	      0.00000000	      0.00000000	    -41.08652150	     -0.96076751	      2.24870770	     72.88464200	     -9.22685069	     24.78780424	     56.27062326	     33.43911380	      0.00000000	      0.00000000	     71.51332350	     -9.03145340	     18.54173234	     56.21909305	     33.06870647	      0.00000000	      0.00000000
      0.00500000	    -27.19890235	     -0.74347311	     -3.14388447	      0.14677427	      1.03661661	     -0.21893773	      0.00000000	      0.50000000	      0.00000000	      0.25000000	     88.73482263	     -1.39209744	      2.26124372	     76.08012245	      1.32784863	     -3.60762706	     -5.81481771	      0.00000000	      0.00000000	     64.68478195	     -5.50084717	      3.63117286	     81.04304296	      1.41446794	     -8.38684925	    -13.36458946	      0.00000000	      0.00000000	    -40.99981746	     -0.95737061	      2.17771688	     73.21826238	     -9.14596669	     25.40740220	     55.17327089	     34.01040306	      0.00000000	      0.00000000	     71.82126804	     -9.14517023	     19.05825361	     55.26495118	     33.61887069	      0.00000000	      0.00000000
      0.01000000	    -27.18544436	     -0.76431477	     -3.14505296	      0.14677759	      1.03668012	     -0.21898684	      0.00000000	      0.50000000	      0.00000000	      0.25000000	     88.72660426	     -1.39685727	      2.22529357	     76.09337965	      1.32808001	     -3.64822609	     -5.87559825	      0.00000000	      0.00000000	     64.66351440	     -5.50024229	      3.64881968	     81.01143869	      1.41391634	     -8.47892580	    -13.47019918	      0.00000000	      0.00000000	    -41.02538044	     -0.93046359	      2.19209187	     73.23781502	     -9.12555526	     25.24310548	     54.98239163	     35.15718580	      0.00000000	      0.00000000	     71.76875679	     -9.16173043	     18.93083837	     55.16536163	     34.75745161	      0.00000000	      0.00000000
      0.01500000	    -27.18523062	     -0.72865295	     -3.09836452	      0.14680506	      1.03664159	     -0.21878774	      0.00000000	      0.50000000	      0.00000000	      0.25000000	     88.76628930	     -1.45170007	      2.21763790	     76.16938713	      1.32940659	     -3.64806258	     -5.90518997	      0.00000000	      0.00000000	     64.64299744	     -5.45830423	      3.65966422	     80.96510387	      1.41310764	     -8.45134044	    -13.37249196	      0.00000000	      0.00000000	    -41.02698168	     -0.96009897	      2.14984520	     73.20817452	     -9.18968933	     25.26212037	     55.01912769	     35.60495889	      0.00000000	      0.00000000	     71.77991724	     -9.22305632	     18.91023638	     55.17565512	     35.17713676	      0.00000000	      0.00000000
      0.02000000	    -27.20058716	     -0.77570493	     -3.10163585	      0.14674040	      1.03664678	     -0.21879564	      0.00000000	      0.50000000	      0.00000000	      0.25000000	     88.79957433	     -1.46931610	      2.15599669	     76.22693915	      1.33041107	     -3.50353260	     -5.74814698	      0.00000000	      0.00000000	     64.67757402	     -5.50150765	      3.69184318	     80.98665000	      1.41348369	     -8.45823013	    -13.40730938	      0.00000000	      0.00000000	    -41.02186133	     -0.91860299	      2.15671558	     73.13410311	     -9.18811108	     25.08793323	     55.11751327	     36.03541697	      0.00000000	      0.00000000	     71.69716129	     -9.21924812	     18.76544374	     55.32813251	     35.60778638	      0.00000000	      0.00000000
      0.02500000	    -27.18506206	     -0.75850920	     -3.11896897	      0.14679555	      1.03677424	     -0.21881561	      0.00000000	      0.50000000	      0.00000000	      0.25000000	     88.78138367	     -1.44976381	      2.19900835	     76.21812221	      1.33025718	     -3.47249880	     -5.65679670	      0.00000000	      0.00000000	     64.63138808	     -5.50444561	      3.67869897	     80.94917570	      1.41282964	     -8.31697577	    -13.19710117	      0.00000000	      0.00000000	    -41.10516171	     -0.93750194	      2.15923690	     73.05026287	     -9.17718078	     24.73362164	     55.49166827	     36.35647413	      0.00000000	      0.00000000	     71.57752565	     -9.24240106	     18.49559448	     55.71405080	     35.93937554	      0.00000000	      0.00000000
      0.03000000	    -27.20517685	     -0.76676344	     -3.11928048	      0.14674740	      1.03675893	     -0.21881110	      0.00000000	      0.50000000	      0.00000000	      0.25000000	     88.81917320	     -1.44112633	      2.19338801	     76.23259534	      1.33050979	     -3.54858432	     -5.74390391	      0.00000000	      0.00000000	     64.65455873	     -5.50414251	      3.68038026	     80.91445828	      1.41222371	     -8.50678687	    -13.42085736	      0.00000000	      0.00000000	    -40.99281402	     -0.93602638	      2.15329479	     73.30463520	     -9.19201918	     25.31155394	     54.53127882	     37.05906160	      0.00000000	      0.00000000	     71.83850284	     -9.27182732	     18.97869853	     54.76407347	     36.58345997	      0.00000000	      0.00000000
      0.03500000	    -27.35681198	     -0.77173667	     -3.12540724	      0.14672629	      1.03650679	     -0.21883009	      0.00000000	      0.50000000	      0.00000000	      0.25000000	     88.99137691	     -1.43648944	      2.17159332	     76.23703637	      1.33058730	     -3.68691769	     -5.90601423	      0.00000000	      0.00000000	     64.82262388	     -5.50081643	      3.66419287	     80.88232542	      1.41166289	     -8.84419213	    -13.88512754	      0.00000000	      0.00000000	    -40.83258717	     -0.92214751	      2.17391501	     72.98898562	     -9.05845419	     24.50238551	     54.79867843	     38.25468251	      0.00000000	      0.00000000	     71.52654002	     -9.17661821	     18.33923810	     55.14221033	     37.79453186	      0.00000000	      0.00000000
      0.04000000	    -27.21936650	     -0.75932905	     -3.14335238	      0.14675499	      1.03672495	     -0.21879613	      0.00000000	      0.50000000	      0.00000000	      0.25000000	     88.86430310	     -1.43119677	      2.19510446	     76.27752854	      1.33129402	     -3.52373552	     -5.68496557	      0.00000000	      0.00000000	     64.65296635	     -5.52239930	      3.65975803	     80.88800962	      1.41176209	     -8.52218086	    -13.43324097	      0.00000000	      0.00000000	    -40.96885764	     -0.94218775	      2.16032159	     73.32937722	     -9.14870662	     25.09991587	     54.11985920	     39.09506637	      0.00000000	      0.00000000	     71.83442834	     -9.29756330	     18.80451583	     54.39406827	     38.57324181	      0.00000000	      0.00000000
      0.04500000	    -27.25843144	     -0.76668930	     -3.13547947	      0.14672565	      1.03665284	     -0.21883981	      0.00000000	      0.50000000	      0.00000000	      0.25000000	     88.90568396	     -1.43628551	      2.19540930	     76.27709412	      1.33128644	     -3.55990567	     -5.76356161	      0.00000000	      0.00000000	     64.69912090	     -5.49771203	      3.67779998	     80.87119007	      1.41146854	     -8.68343935	    -13.68317317	      0.00000000	      0.00000000	    -40.95026749	     -0.93431345	      2.16309697	     73.17043935	     -9.12486432	     24.67932706	     54.32823421	     39.85536750	      0.00000000	      0.00000000	     71.67714399	     -9.26298461	     18.51942059	     54.63701282	     39.34716174	      0.00000000	      0.00000000
      0.05000000	    -27.19951214	     -0.74646637	     -3.15686904	      0.14681561	      1.03684121	     -0.21884122	      0.00000000	      0.50000000	      0.00000000	      0.25000000	     88.84398462	     -1.44296500	      2.19945944	     76.29119653	      1.33153257	     -3.46821443	     -5.62627780	      0.00000000	      0.00000000	     64.57857663	     -5.50544044	      3.66105449	     80.80989382	      1.41039872	     -8.43866188	    -13.40873200	      0.00000000	      0.00000000	    -41.09581421	     -0.95187262	      2.17626640	     73.05097306	     -9.10654234	     24.16810350	     54.92348328	     40.08505944	      0.00000000	      0.00000000	     71.50509105	     -9.29650939	     18.12231412	     55.23516076	     39.59596347	      0.00000000	      0.00000000
      0.05500000	    -27.24820604	     -0.78350988	     -3.18026565	      0.14676240	      1.03668036	     -0.21879883	      0.00000000	      0.50000000	      0.00000000	      0.25000000	     88.91414475	     -1.41503674	      2.14291694	     76.30989210	      1.33185887	     -3.53067342	     -5.71795444	      0.00000000	      0.00000000	     64.66034419	     -5.55398530	      3.66329285	     80.83756568	      1.41088168	     -8.65980832	    -13.62680110	      0.00000000	      0.00000000	    -41.01808575	     -0.95778246	      2.20476707	     72.99402976	     -9.08325582	     24.20463158	     54.77852360	     40.29054768	      0.00000000	      0.00000000	     71.54894185	     -9.29011882	     18.13164699	     55.15579025	     39.80476687	      0.00000000	      0.00000000
      0.06000000	    -27.24437424	     -0.76664299	     -3.18766471	      0.14676744	      1.03651080	     -0.21871238	      0.00000000	      0.50000000	      0.00000000	      0.25000000	     88.95661764	     -1.40037994	      2.17660746	     76.41535675	      1.33369957	     -3.44126952	     -5.65096492	      0.00000000	      0.00000000	     64.66843582	     -5.57512954	      3.63476472	     80.88261046	      1.41166786	     -8.53880531	    -13.50007413	      0.00000000	      0.00000000	    -41.01394628	     -0.99012317	      2.15828621	     72.96629824	     -9.04458098	     24.08684565	     54.89669935	     40.47948006	      0.00000000	      0.00000000	     71.51280362	     -9.25448560	     18.03600895	     55.29168384	     39.99769194	      0.00000000	      0.00000000
      0.06500000	    -27.27685147	     -0.76191104	     -3.19718235	      0.14671226	      1.03655959	     -0.21882607	      0.00000000	      0.50000000	      0.00000000	      0.25000000	     88.96738273	     -1.42996893	      2.14544482	     76.34709411	      1.33250817	     -3.46655174	     -5.64471986	      0.00000000	      0.00000000	     64.68348411	     -5.55337359	      3.63907816	     80.83136407	      1.41077344	     -8.58490969	    -13.60183308	      0.00000000	      0.00000000	    -40.90100242	     -0.95685874	      2.18670284	     73.28397753	     -9.11191349	     24.81563523	     53.93539971	     40.63702087	      0.00000000	      0.00000000	     71.74537482	     -9.30612019	     18.57979471	     54.30336178	     40.10359236	      0.00000000	      0.00000000
